<svg id="Layer_1" data-name="Layer 1" xmlns="http://www.w3.org/2000/svg" viewBox="0 0 1366 768"><defs><style>.cls-1{fill:#fff;}</style></defs><path class="cls-1" d="M4.7,357.3V302.5h228v54.8ZM82.4,545.8V260.1q0-161.9,116.8-161.9a215.5,215.5,0,0,1,51.2,5.9l-5.1,54.2q-14.7-2.4-25.8-3.3c-7.5-.6-14.7-.9-21.7-.9q-66,0-66.1,103.1V545.8Z"/><path class="cls-1" d="M407.7,551.7q-51.1,0-79.6-42.4T299.7,389.7q0-77.4,28.4-119.7t79.6-42.3q51.4,0,79.7,42.3t28.3,119.7q0,77.1-28.3,119.6T407.7,551.7Zm0-56q27.3,0,42-27.7t14.8-78.3c0-34-4.9-60.1-14.8-78.5s-23.8-27.5-42-27.5-32.1,9.2-42,27.5-14.8,44.5-14.8,78.5,5,59.9,14.8,78.3S389.6,495.7,407.7,495.7Z"/><path class="cls-1" d="M570.1,158.8V104.1h76.8v54.7ZM723.7,551.7c-28.5,0-49.2-9.9-61.9-29.5s-19.1-51-19.1-94.2V104.1h49.4V425c0,16.5,1.2,30,3.7,40.4s7.3,18,14.5,23,17.9,7.3,32,7.3,29.3-3.7,49.3-11.2l5.6,54.8a222.6,222.6,0,0,1-36.2,9.4A218.5,218.5,0,0,1,723.7,551.7Z"/><path class="cls-1" d="M863.8,545.8V491h98.6v54.8Zm13.9-257.4V233.6h129.4v54.8ZM980.8,184.2c-9.4,0-17.5-4.3-24.3-12.8s-10.1-18.8-10.1-30.8,3.4-22.5,10.1-30.9S971.4,97,980.8,97s17.8,4.2,24.5,12.7,10,18.7,10,30.9-3.4,22.2-10,30.8S990.4,184.2,980.8,184.2Zm-23,361.6V251.3h49.3V545.8Zm44.7,0V491H1083v54.8Z"/><path class="cls-1" d="M1245.4,551.7q-51.2,0-79.6-42.4t-28.4-119.6q0-77.4,28.4-119.7t79.6-42.3q51.4,0,79.7,42.3t28.3,119.7q0,77.1-28.3,119.6T1245.4,551.7Zm0-56q27.1,0,42-27.7c9.8-18.4,14.8-44.5,14.8-78.3s-5-60.1-14.8-78.5-23.9-27.5-42-27.5-32.2,9.2-42,27.5-14.8,44.5-14.8,78.5,4.9,59.9,14.8,78.3S1227.2,495.7,1245.4,495.7Z"/></svg>