<!DOCTYPE svg PUBLIC "-//W3C//DTD SVG 1.1//EN" "http://www.w3.org/Graphics/SVG/1.1/DTD/svg11.dtd">
<!-- Uploaded to: SVG Repo, www.svgrepo.com, Transformed by: SVG Repo Mixer Tools -->
<svg fill="#ffffff" width="800px" height="800px" viewBox="-1.05 -1.05 37.10 37.10" data-name="Layer 2" id="Layer_2" xmlns="http://www.w3.org/2000/svg" stroke="#ffffff" stroke-width="2.415">
<g id="SVGRepo_bgCarrier" stroke-width="0"/>
<g id="SVGRepo_tracerCarrier" stroke-linecap="round" stroke-linejoin="round" stroke="#CCCCCC" stroke-width="0.21000000000000002"/>
<g id="SVGRepo_iconCarrier">
<path d="M21.81,34.75H21.5A3.8,3.8,0,0,1,18,31.58L16,20.12A1.36,1.36,0,0,0,14.88,19L3.42,17a3.84,3.84,0,0,1-.56-7.42L29.66.46h0a3.84,3.84,0,0,1,4.88,4.88l-9.11,26.8A3.79,3.79,0,0,1,21.81,34.75ZM30.47,2.83,3.66,11.94a1.34,1.34,0,0,0,.2,2.59l11.46,2a3.85,3.85,0,0,1,3.11,3.11l2,11.46a1.34,1.34,0,0,0,2.59.2L32.17,4.53a1.34,1.34,0,0,0-1.7-1.7Z"/>
</g>
</svg>